<svg width="24" height="24" viewBox="0 0 24 24" fill="none" xmlns="http://www.w3.org/2000/svg">
<path d="M13.31 20.4C11.9877 20.6066 10.6353 20.498 9.36293 20.083C8.09054 19.6681 6.9341 18.9586 5.98776 18.0123C5.04141 17.0659 4.3319 15.9095 3.91698 14.6371C3.50206 13.3647 3.39345 12.0123 3.6 10.69C3.07874 9.69851 2.88826 8.56629 3.05641 7.45882C3.22457 6.35135 3.74254 5.32669 4.53461 4.53461C5.32669 3.74254 6.35135 3.22457 7.45882 3.05641C8.56629 2.88826 9.69851 3.07874 10.69 3.6C12.0123 3.39345 13.3647 3.50206 14.6371 3.91698C15.9095 4.3319 17.0659 5.04141 18.0123 5.98776C18.9586 6.9341 19.6681 8.09054 20.083 9.36293C20.498 10.6353 20.6066 11.9877 20.4 13.31C20.9213 14.3015 21.1117 15.4337 20.9436 16.5412C20.7754 17.6487 20.2575 18.6733 19.4654 19.4654C18.6733 20.2575 17.6487 20.7754 16.5412 20.9436C15.4337 21.1117 14.3015 20.9213 13.31 20.4ZM12.052 17.156H12.012C14.884 17.156 16.315 15.77 16.315 13.913C16.315 12.715 15.764 11.442 13.589 10.955L11.606 10.515C10.851 10.343 9.984 10.115 9.984 9.4C9.984 8.685 10.604 8.18701 11.708 8.18701C13.938 8.18701 13.735 9.715 14.839 9.715C15.415 9.715 15.932 9.373 15.932 8.785C15.932 7.415 13.735 6.38501 11.876 6.38501C9.85501 6.38501 7.703 7.24401 7.703 9.52901C7.703 10.627 8.097 11.799 10.263 12.342L12.952 13.013C13.768 13.215 13.97 13.672 13.97 14.085C13.97 14.772 13.286 15.443 12.052 15.443C9.635 15.443 9.97401 13.586 8.67801 13.586C8.09801 13.586 7.675 13.984 7.675 14.557C7.675 15.671 9.027 17.155 12.052 17.155V17.156Z" fill="black"/>
</svg>
